<svg width="256" height="256" viewBox="0 0 256 256" xmlns="http://www.w3.org/2000/svg" role="img" aria-label="Rinemaca icon idea line stack">
  <defs>
    <linearGradient id="bg" x1="32" y1="24" x2="224" y2="232" gradientUnits="userSpaceOnUse">
      <stop offset="0" stop-color="#14314D"/>
      <stop offset="1" stop-color="#0C1825"/>
    </linearGradient>
    <linearGradient id="panel" x1="48" y1="44" x2="208" y2="212" gradientUnits="userSpaceOnUse">
      <stop offset="0" stop-color="#1E4468"/>
      <stop offset="1" stop-color="#122A42"/>
    </linearGradient>
  </defs>
  <rect x="16" y="16" width="224" height="224" rx="48" fill="url(#bg)"/>
  <rect x="48" y="44" width="160" height="168" rx="24" fill="url(#panel)" stroke="#7BB4EA" stroke-width="6"/>
  <rect x="68" y="74" width="120" height="10" rx="5" fill="#D6E7F9" opacity="0.95"/>
  <rect x="68" y="103" width="120" height="10" rx="5" fill="#D6E7F9" opacity="0.95"/>
  <rect x="68" y="132" width="120" height="10" rx="5" fill="#D6E7F9" opacity="0.95"/>
  <rect x="68" y="161" width="120" height="10" rx="5" fill="#D6E7F9" opacity="0.95"/>
  <path d="M52 66h22v48l-11-8-11 8z" fill="#F1C232"/>
  <path d="M182 124h22v48l-11-8-11 8z" fill="#4BA3FF"/>
  <circle cx="193" cy="185" r="11" fill="#4BA3FF"/>
  <circle cx="63" cy="185" r="11" fill="#F1C232"/>
</svg>
