<svg width="256" height="256" viewBox="0 0 256 256" xmlns="http://www.w3.org/2000/svg" role="img" aria-label="Rinemaca icon idea split markers">
  <defs>
    <linearGradient id="bg2" x1="24" y1="20" x2="232" y2="236" gradientUnits="userSpaceOnUse">
      <stop offset="0" stop-color="#16212D"/>
      <stop offset="1" stop-color="#0A1118"/>
    </linearGradient>
    <linearGradient id="left" x1="40" y1="36" x2="120" y2="220" gradientUnits="userSpaceOnUse">
      <stop offset="0" stop-color="#3E3520"/>
      <stop offset="1" stop-color="#1F1A12"/>
    </linearGradient>
    <linearGradient id="right" x1="136" y1="36" x2="216" y2="220" gradientUnits="userSpaceOnUse">
      <stop offset="0" stop-color="#1A3552"/>
      <stop offset="1" stop-color="#101D2A"/>
    </linearGradient>
  </defs>
  <rect x="16" y="16" width="224" height="224" rx="48" fill="url(#bg2)"/>
  <rect x="40" y="36" width="80" height="184" rx="24" fill="url(#left)" stroke="#F1C232" stroke-width="6"/>
  <rect x="136" y="36" width="80" height="184" rx="24" fill="url(#right)" stroke="#4BA3FF" stroke-width="6"/>
  <rect x="58" y="66" width="44" height="10" rx="5" fill="#F9E19A"/>
  <rect x="58" y="98" width="44" height="10" rx="5" fill="#F9E19A"/>
  <rect x="58" y="130" width="44" height="10" rx="5" fill="#F9E19A"/>
  <rect x="58" y="162" width="44" height="10" rx="5" fill="#F9E19A"/>
  <rect x="154" y="82" width="44" height="10" rx="5" fill="#B6D8FF"/>
  <rect x="154" y="114" width="44" height="10" rx="5" fill="#B6D8FF"/>
  <rect x="154" y="146" width="44" height="10" rx="5" fill="#B6D8FF"/>
  <path d="M49 54h24v46l-12-8-12 8z" fill="#F1C232"/>
  <path d="M183 150h24v46l-12-8-12 8z" fill="#4BA3FF"/>
</svg>
