<svg width="128" height="128" viewBox="0 0 128 128" fill="none" xmlns="http://www.w3.org/2000/svg">
  <rect x="16" y="16" width="96" height="96" rx="20" fill="#1F6FEB"/>
  <path d="M42 92V36H56.5C64.1667 36 70 37.8333 74 41.5C78 45.1667 80 50.3333 80 57C80 63.6667 78 68.8333 74 72.5C70 76.1667 64.1667 78 56.5 78H50V92H42ZM50 71H56C61.0667 71 64.9333 69.8167 67.6 67.45C70.2667 65.0833 71.6 61.6 71.6 57C71.6 52.4 70.2667 48.9167 67.6 46.55C64.9333 44.1833 61.0667 43 56 43H50V71Z" fill="white"/>
  <circle cx="91" cy="88" r="9" fill="#FFD166"/>
</svg>
